HIERARCHY
ROOT Character1_Hips
{
	OFFSET	0.000000	0.000000	0.000000
	CHANNELS 6 Xposition Yposition Zposition Zrotation Yrotation Xrotation
	JOINT Character1_Spine
	{
		OFFSET	0.000000	0.000000	0.000000
		CHANNELS 3 Zrotation Yrotation Xrotation
		JOINT Character1_Spine1
		{
			OFFSET	-0.159647	12.118038	-0.624335
			CHANNELS 3 Zrotation Yrotation Xrotation
			JOINT Character1_LeftShoulder
			{
				OFFSET	0.043845	24.307200	0.378636
				CHANNELS 3 Zrotation Yrotation Xrotation
				JOINT Character1_LeftArm
				{
					OFFSET	18.150765	8.164377	-0.209994
					CHANNELS 3 Zrotation Yrotation Xrotation
					JOINT Character1_LeftForeArm
					{
						OFFSET	30.911856	-0.000000	-0.000000
						CHANNELS 3 Zrotation Yrotation Xrotation
						JOINT Character1_LeftHand
						{
							OFFSET	17.444607	-0.000000	-0.000000
							CHANNELS 3 Zrotation Yrotation Xrotation
							End Site
							{
								OFFSET	8.722304	-0.000000	-0.000000
							}
						}
					}
				}
			}
			JOINT Character1_RightShoulder
			{
				OFFSET	0.043845	24.307200	0.378636
				CHANNELS 3 Zrotation Yrotation Xrotation
				JOINT Character1_RightArm
				{
					OFFSET	-19.117327	7.275927	-0.400367
					CHANNELS 3 Zrotation Yrotation Xrotation
					JOINT Character1_RightForeArm
					{
						OFFSET	-29.022717	-0.000000	-0.000000
						CHANNELS 3 Zrotation Yrotation Xrotation
						JOINT Character1_RightHand
						{
							OFFSET	-18.940780	-0.000000	-0.000000
							CHANNELS 3 Zrotation Yrotation Xrotation
							End Site
							{
								OFFSET	-9.470362	-0.000000	-0.000000
							}
						}
					}
				}
			}
			JOINT Character1_Neck
			{
				OFFSET	0.043845	24.307200	0.378636
				CHANNELS 3 Zrotation Yrotation Xrotation
				JOINT Character1_Head
				{
					OFFSET	-0.045498	21.428801	-0.982541
					CHANNELS 3 Zrotation Yrotation Xrotation
					End Site
					{
						OFFSET	0.179810	10.843468	-0.535288
					}
				}
			}
		}
	}
	JOINT Character1_RightUpLeg
	{
		OFFSET	-9.266443	-10.474173	3.905763
		CHANNELS 3 Zrotation Yrotation Xrotation
		JOINT Character1_RightLeg
		{
			OFFSET	-13.649050	-37.500488	0.000000
			CHANNELS 3 Zrotation Yrotation Xrotation
			JOINT Character1_RightFoot
			{
				OFFSET	-15.837653	-43.513629	0.000000
				CHANNELS 3 Zrotation Yrotation Xrotation
				JOINT Character1_RightToeBase
				{
					OFFSET	-1.077978	-2.961728	12.722659
					CHANNELS 3 Zrotation Yrotation Xrotation
					End Site
					{
						OFFSET	-0.000000	-0.000000	6.566352
					}
				}
			}
		}
	}
	JOINT Character1_LeftUpLeg
	{
		OFFSET	9.869701	-10.474183	3.905765
		CHANNELS 3 Zrotation Yrotation Xrotation
		JOINT Character1_LeftLeg
		{
			OFFSET	13.546829	-37.219639	0.000000
			CHANNELS 3 Zrotation Yrotation Xrotation
			JOINT Character1_LeftFoot
			{
				OFFSET	15.926881	-43.758782	0.000000
				CHANNELS 3 Zrotation Yrotation Xrotation
				JOINT Character1_LeftToeBase
				{
					OFFSET	0.929407	-2.553526	12.806656
					CHANNELS 3 Zrotation Yrotation Xrotation
					End Site
					{
						OFFSET	0.000000	-0.000000	6.574988
					}
				}
			}
		}
	}
}
MOTION
Frames:	16
Frame Time:	0.008333
-96.745778	100.567067	41.113851	8.466870	69.779500	14.738800	-3.312420	2.819760	2.970580	-1.456340	3.730500	2.457510	0.000000	-0.000000	0.000000	-79.364367	5.710585	16.165719	18.162348	-28.364546	-4.626111	0.000000	0.000000	-14.552600	0.000000	-0.000000	0.000000	85.570436	-3.384980	19.691736	-17.276761	27.221182	-4.213156	0.000000	0.000000	-5.816960	-0.947543	6.382220	-5.067970	0.845373	4.832530	9.033950	26.548340	-16.158198	-37.212547	-3.630282	-11.651458	34.509864	-1.010402	-22.560567	-37.568660	-1.128466	-6.747220	18.968615	-29.359943	3.082587	-15.023609	1.615788	8.015210	22.760289	2.203451	7.292270	-31.397248	0.179580	2.729578	7.526764
-96.828187	100.526991	41.121358	8.831860	70.356500	15.062000	-3.417270	2.793390	3.011470	-1.576750	3.694050	2.458610	0.000000	-0.000000	0.000000	-79.194023	5.605346	15.033508	17.929690	-28.067043	-4.516111	0.000000	0.000000	-14.282900	0.000000	-0.000000	0.000000	85.713592	-3.490736	19.673645	-17.403600	27.386763	-4.271338	-0.000000	-0.000000	-5.763530	-0.908191	6.312560	-5.113160	0.826982	4.790170	9.035490	26.442077	-16.536544	-37.645841	-3.770451	-11.848512	35.198167	-0.988498	-22.329269	-37.201099	-1.070013	-6.575859	18.464737	-29.321228	2.925736	-14.965512	1.611582	8.005274	22.730102	2.156028	7.287019	-31.106691	0.170702	2.661597	7.337985
-96.900436	100.494818	41.116335	9.132760	70.941100	15.313100	-3.529310	2.762030	3.045230	-1.627910	3.650690	2.474740	-0.000000	0.000000	0.000000	-79.060283	5.662377	14.451479	17.878670	-28.001528	-4.492132	0.000000	0.000000	-14.306200	-0.000000	0.000000	0.000000	85.665071	-3.507062	19.927535	-17.430879	27.422295	-4.283894	0.000000	0.000000	-5.952010	-0.972679	6.239920	-5.129440	0.828563	4.741500	9.009300	26.269051	-16.779290	-37.985109	-3.912271	-12.042739	35.883334	-1.074389	-21.873771	-37.147520	-1.114971	-6.708101	18.853426	-29.260923	2.777483	-14.933314	1.616858	8.017733	22.767955	2.111279	6.986680	-30.660122	0.188788	2.798303	7.717712
-96.961396	100.486916	41.106062	9.730130	71.487000	15.862900	-3.802450	2.739930	3.000440	-1.658330	3.620820	2.504130	-0.000000	-0.000000	0.000000	-78.973155	5.799816	14.269250	17.918775	-28.053035	-4.510977	-0.000000	0.000000	-14.710200	-0.000000	-0.000000	0.000000	85.548438	-3.481164	20.181277	-17.386100	27.363954	-4.263291	0.000000	0.000000	-6.136310	-1.061690	6.188930	-5.096900	0.836554	4.708120	8.972910	26.010253	-17.031363	-38.349925	-4.052724	-12.230236	36.551385	-0.933384	-21.886243	-36.421531	-1.011264	-6.398367	17.944745	-29.326614	2.653681	-14.931899	1.627582	8.042987	22.844723	2.098272	6.646451	-30.387326	0.195265	2.845630	7.849268
-97.005987	100.476191	41.089580	10.024100	72.092100	16.093000	-3.917730	2.720520	2.992430	-1.672390	3.595600	2.533040	0.000000	0.000000	0.000000	-78.957763	5.787798	13.812564	17.841358	-27.953554	-4.474628	0.000000	0.000000	-15.057800	0.000000	0.000000	0.000000	85.537113	-3.493775	20.049215	-17.360180	27.330149	-4.251384	-0.000000	-0.000000	-6.023770	-1.153430	6.141150	-5.129090	0.873958	4.678860	8.980230	25.850871	-17.358045	-38.654424	-4.195719	-12.416391	37.221366	-0.826807	-21.814919	-35.767588	-0.928675	-6.139045	17.188388	-29.271877	2.472495	-14.824077	1.631205	8.051496	22.870602	2.081981	6.509980	-30.209444	0.176917	2.709368	7.470632
-97.043804	100.477320	41.072534	10.286600	72.688500	16.278900	-3.983350	2.711410	3.000880	-1.695300	3.585650	2.584370	-0.000000	-0.000000	0.000000	-78.979601	5.584262	12.764183	17.591674	-27.631163	-4.358207	-0.000000	0.000000	-14.713500	-0.000000	-0.000000	0.000000	85.546610	-3.466361	19.824527	-17.320412	27.278235	-4.233142	0.000000	0.000000	-5.894340	-1.248950	6.073160	-5.183130	0.903475	4.631040	8.961630	25.652200	-17.583659	-38.869616	-4.336603	-12.595337	37.871977	-0.764000	-21.721427	-35.315489	-0.881606	-5.985618	16.742701	-29.185655	2.226116	-14.683802	1.632400	8.054301	22.879133	2.019313	6.332446	-29.715047	0.192674	2.826797	7.796912
-97.083880	100.500462	41.061866	10.723900	73.211400	16.652100	-4.278090	2.729010	2.976360	-1.619570	3.606060	2.620720	0.000000	-0.000000	0.000000	-79.143757	5.491347	11.826495	17.425232	-27.414941	-4.281293	0.000000	0.000000	-14.250900	0.000000	-0.000000	0.000000	85.345016	-3.528897	19.786329	-17.298075	27.249048	-4.222910	0.000000	-0.000000	-5.866570	-1.393310	5.989370	-5.223010	0.905906	4.576920	8.954790	25.424725	-17.745470	-39.079143	-4.468375	-12.758870	38.472417	-0.683820	-21.608590	-34.735023	-0.867918	-5.940175	16.610943	-29.165839	2.017207	-14.613466	1.640050	8.072227	22.933674	1.962979	6.145121	-29.249583	0.195177	2.844996	7.847506
-97.130729	100.522476	41.056221	10.705700	73.779000	16.594900	-4.542490	2.755200	2.981290	-1.431980	3.632850	2.627130	0.000000	-0.000000	0.000000	-79.385441	5.460508	11.298121	17.364742	-27.336101	-4.253479	0.000000	0.000000	-14.391200	0.000000	-0.000000	0.000000	85.006074	-3.631137	19.805880	-17.229870	27.159814	-4.191729	0.000000	0.000000	-5.838800	-1.409150	5.916860	-5.245320	0.830543	4.540230	8.972970	25.323768	-17.838644	-39.235098	-4.595084	-12.912760	39.042769	-0.427811	-21.987338	-33.703797	-0.709664	-5.383976	15.007048	-28.989650	1.792449	-14.529431	1.647489	8.089611	22.986591	1.949778	5.916097	-29.037786	0.181623	2.744982	7.569551
-97.177578	100.525298	41.044424	10.606800	74.379200	16.490700	-4.462260	2.780310	3.005400	-1.434640	3.665990	2.613080	0.000000	-0.000000	0.000000	-79.332868	5.432965	10.810291	17.275496	-27.219528	-4.212577	0.000000	0.000000	-14.616600	0.000000	-0.000000	0.000000	84.969765	-3.720693	19.696052	-17.185680	27.101906	-4.171577	-0.000000	0.000000	-5.794880	-1.387860	5.839000	-5.235070	0.806318	4.492930	8.949380	25.180686	-17.832544	-39.344857	-4.718358	-13.059430	39.591343	-0.155357	-22.374710	-32.538911	-0.525291	-4.644711	12.897924	-28.779446	1.498044	-14.451157	1.653781	8.104281	23.031267	1.952750	5.605607	-28.888926	0.202559	2.897985	7.994863
-97.218218	100.526991	41.016484	10.775700	74.950000	16.727300	-4.192910	2.830600	2.926530	-1.626670	3.746140	2.605310	0.000000	-0.000000	0.000000	-78.987183	5.328848	10.469658	17.160828	-27.069306	-4.160261	0.000000	0.000000	-14.666900	0.000000	-0.000000	0.000000	85.216683	-3.747005	19.442160	-17.133343	27.033225	-4.147762	0.000000	0.000000	-5.816470	-1.379370	5.732930	-5.246930	0.849848	4.417400	8.895930	25.006777	-17.839738	-39.560382	-4.837187	-13.198064	40.114492	-0.129262	-22.045283	-31.937413	-0.513440	-4.592820	12.750754	-28.679620	1.007293	-14.419735	1.664042	8.128133	23.103944	1.965182	5.428375	-28.875683	0.239414	3.148906	8.693590
-97.258293	100.526991	41.006324	11.403100	75.488700	17.403800	-4.117550	2.899960	2.878580	-1.814980	3.845550	2.579750	0.000000	-0.000000	0.000000	-78.666084	5.307171	10.482048	17.167828	-27.078490	-4.163447	-0.000000	0.000000	-14.823200	0.000000	-0.000000	0.000000	85.452867	-3.837052	19.124334	-17.077357	26.959641	-4.122347	0.000000	0.000000	-5.732790	-1.367110	5.622480	-5.237730	0.880248	4.342290	8.847270	24.654509	-17.711355	-39.651969	-4.947974	-13.324966	40.597443	-0.212172	-21.423953	-31.654930	-0.595042	-4.938394	13.732937	-28.698940	0.488247	-14.369074	1.674674	8.152759	23.179027	1.973034	5.331739	-28.875975	0.262952	3.298930	9.112128
-97.292724	100.544489	41.024951	11.634600	76.044900	17.621400	-4.064350	2.945400	2.924080	-1.909960	3.905970	2.561420	-0.000000	0.000000	0.000000	-78.463258	5.322203	10.424722	17.186879	-27.103478	-4.172123	0.000000	0.000000	-14.890800	-0.000000	0.000000	0.000000	85.595403	-3.920395	18.843093	-17.014782	26.877257	-4.094018	0.000000	-0.000000	-5.532520	-1.266560	5.534510	-5.259670	0.856827	4.289940	8.844560	24.322310	-17.450498	-39.491246	-5.047121	-13.436664	41.025865	-0.352001	-20.597709	-31.506649	-0.723563	-5.435329	15.154480	-28.582179	0.162900	-14.305928	1.683920	8.174102	23.244146	1.935803	5.375820	-28.655458	0.247341	3.200239	8.836731
-97.331671	100.577227	41.051875	11.422500	76.605800	17.361100	-3.985760	2.982580	3.013570	-1.924430	3.953400	2.573220	0.000000	-0.000000	0.000000	-78.335956	5.328545	10.245496	17.186185	-27.102568	-4.171807	0.000000	0.000000	-14.814900	0.000000	-0.000000	0.000000	85.619686	-3.955923	18.716134	-16.954117	26.797248	-4.066631	-0.000000	0.000000	-5.552710	-1.252670	5.471220	-5.409520	0.867067	4.250000	8.880670	24.078121	-17.085386	-39.205739	-5.140372	-13.540152	41.425654	-0.491952	-19.837982	-31.480273	-0.866150	-5.934276	16.593846	-28.335421	-0.003427	-14.225590	1.686498	8.180041	23.262273	1.889395	5.322609	-28.320250	0.231182	3.094673	8.542434
-97.384729	100.597547	41.082355	11.192600	77.162400	17.081500	-3.910160	3.050760	3.115490	-1.943690	4.041420	2.581460	-0.000000	-0.000000	0.000000	-78.181093	5.314923	10.309426	17.171676	-27.083538	-4.165199	0.000000	0.000000	-14.914400	-0.000000	-0.000000	0.000000	85.653592	-4.052227	18.602683	-16.925762	26.759802	-4.053855	0.000000	0.000000	-5.701700	-1.311830	5.384490	-5.524080	0.918965	4.186810	8.867620	23.792453	-16.634760	-38.901136	-5.229946	-13.638160	41.806885	-0.471871	-19.576802	-31.035081	-0.886963	-6.003302	16.794004	-28.089223	-0.140140	-14.134024	1.683770	8.173757	23.243091	1.834602	5.310356	-27.946483	0.192316	2.824185	7.789649
-97.418031	100.627462	41.113512	11.737500	77.660300	17.581800	-4.031120	3.122500	3.169930	-1.999470	4.132900	2.575280	-0.000000	0.000000	0.000000	-78.053608	5.371160	10.472778	17.225449	-27.154024	-4.189711	0.000000	0.000000	-15.267200	-0.000000	0.000000	0.000000	85.698790	-4.111904	18.061842	-16.759952	26.540233	-3.979483	-0.000000	0.000000	-4.909970	-1.309130	5.296990	-5.582280	0.942994	4.125720	8.840620	23.310333	-16.203209	-38.645105	-5.322259	-13.737767	42.196995	-0.468435	-19.174304	-30.527542	-0.886059	-6.000322	16.785358	-28.051776	-0.378202	-14.002329	1.680063	8.165208	23.217004	1.806483	5.255897	-27.726767	0.177226	2.711722	7.477168
-97.436093	100.655120	41.148508	12.302100	78.140700	18.091100	-4.214290	3.156710	3.205320	-1.987420	4.173000	2.576970	-0.000000	-0.000000	0.000000	-78.024272	5.530810	10.633783	17.348778	-27.315270	-4.246151	0.000000	0.000000	-15.471900	-0.000000	-0.000000	0.000000	85.625514	-4.082787	17.347144	-16.480601	26.167965	-3.855473	0.000000	-0.000000	-3.487180	-1.397800	5.256010	-5.569680	0.966381	4.092670	8.776540	22.848799	-15.779412	-38.309740	-5.405945	-13.826860	42.548267	-0.621917	-18.231984	-30.449311	-0.946344	-6.195546	17.352853	-28.011771	-0.613043	-13.866440	1.680731	8.166748	23.221704	1.797916	5.074635	-27.571783	0.193692	2.834215	7.817532
